<svg width="153" height="264" viewBox="0 0 153 264" fill="none" xmlns="http://www.w3.org/2000/svg">
<path d="M76.0616 87.4893V2.22805C76.0616 0.516003 74.2075 -0.556682 72.7228 0.302892L3.33883 40.9586C1.27159 42.1521 0 44.3543 0 46.7412V132.002L71.6146 174.036C74.3709 175.628 77.7594 175.628 80.5158 174.036L151.015 133.928C152.5 133.068 152.5 130.93 151.015 130.07L76.0616 87.4893Z" fill="#BEBEBE"/>
<path d="M151.015 133.92L80.5158 174.028C77.7595 175.62 74.3709 175.62 71.6146 174.028L0 131.995V214.684C0 218.662 2.12406 222.335 5.56236 224.324L71.6146 262.508C75.06 264.497 77.0704 264.497 80.5158 262.508L146.568 224.324C150.013 222.335 152.13 218.662 152.13 214.684V131.995C152.123 132.748 151.754 133.494 151.015 133.92Z" fill="#55534E"/>
</svg>
